<?xml version="1.0" standalone="no"?>
<!DOCTYPE svg PUBLIC "-//W3C//DTD SVG 20010904//EN"
 "http://www.w3.org/TR/2001/REC-SVG-20010904/DTD/svg10.dtd">
<svg version="1.0" xmlns="http://www.w3.org/2000/svg"
 width="1024.000000pt" height="1024.000000pt" viewBox="0 0 1024.000000 1024.000000"
 preserveAspectRatio="xMidYMid meet">
<metadata>
Created by potrace 1.14, written by Peter Selinger 2001-2017
</metadata>
<g transform="translate(0.000000,1024.000000) scale(0.100000,-0.100000)"
fill="#000000" stroke="none">
<path d="M620 10229 c-267 -74 -481 -268 -565 -514 -20 -60 -23 -72 -36 -150
-11 -72 -8 -8864 4 -8910 34 -131 75 -223 140 -314 95 -130 197 -207 377 -284
110 -48 -132 -46 4610 -44 2439 1 4446 5 4460 9 102 30 164 54 220 85 179 97
305 247 381 453 l24 65 3 4480 c3 4174 2 4484 -14 4545 -74 284 -314 519 -593
579 -68 14 -8958 14 -9011 0z m8082 -793 c116 -7 151 -16 280 -74 153 -69 286
-195 363 -344 11 -21 23 -38 27 -38 5 0 7 -3 6 -7 -2 -11 13 -66 22 -78 7 -11
26 -96 36 -165 11 -83 6 -7200 -5 -7259 -6 -30 -16 -73 -23 -95 -6 -23 -12
-43 -13 -46 -4 -16 -36 -87 -45 -100 -6 -8 -15 -27 -21 -42 -6 -16 -15 -28
-19 -28 -5 0 -11 -9 -15 -19 -6 -21 -118 -138 -175 -184 -81 -65 -254 -134
-380 -152 -59 -9 -7159 -9 -7230 0 -126 15 -265 66 -367 136 -62 43 -160 141
-202 202 -67 98 -113 218 -137 357 -8 50 -7 7142 1 7231 4 41 9 77 12 82 2 4
6 20 9 35 2 15 8 36 13 47 54 120 74 162 102 202 35 52 168 185 204 206 178
99 251 123 400 134 44 3 81 6 82 7 5 4 7005 -3 7075 -8z"/>
<path d="M3770 7094 c-78 -18 -79 -18 -110 -31 -69 -29 -128 -59 -157 -81 -18
-13 -33 -22 -33 -19 0 3 -13 -7 -29 -21 -16 -15 -35 -32 -42 -38 -17 -14 -120
-128 -119 -132 1 -3 -53 -96 -60 -102 -3 -3 -6 -9 -7 -15 -1 -5 -14 -41 -29
-80 -29 -77 -29 -78 -39 -154 -13 -95 -9 -2557 5 -2631 12 -70 38 -147 70
-210 11 -22 17 -40 13 -40 -5 0 -3 -4 2 -8 6 -4 24 -27 40 -52 16 -25 33 -47
36 -50 3 -3 29 -31 57 -63 29 -31 52 -54 52 -51 0 3 17 -8 38 -25 55 -47 57
-48 80 -55 12 -4 22 -11 22 -15 0 -4 6 -8 13 -9 6 0 46 -14 87 -30 41 -16 90
-34 109 -40 24 -8 409 -11 1340 -12 1089 0 1317 3 1372 14 78 17 188 59 242
93 20 13 37 21 37 18 0 -3 8 3 19 13 10 9 30 26 45 37 38 30 106 96 106 103 0
4 12 21 28 37 49 55 105 167 133 265 18 62 19 124 19 1422 0 1134 -3 1362 -14
1390 -8 18 -15 38 -16 43 -1 6 -9 28 -18 50 -9 22 -16 43 -14 48 1 4 -3 7 -9
7 -5 0 -8 4 -5 9 4 5 2 11 -3 13 -5 1 -11 10 -13 18 -2 8 -6 17 -9 20 -9 7
-79 99 -79 104 0 2 -20 24 -45 48 -25 25 -45 43 -45 41 0 -2 -7 3 -17 12 -48
48 -184 117 -298 151 l-80 23 -1305 0 c-1117 0 -1314 -3 -1370 -15z"/>
</g>
</svg>
